<?xml version="1.0" encoding="UTF-8" standalone="no"?>
<!-- Created with Inkscape (http://www.inkscape.org/) -->

<svg
   width="297mm"
   height="210mm"
   viewBox="0 0 297 210"
   version="1.1"
   id="svg1"
   inkscape:version="1.4 (e7c3feb100, 2024-10-09)"
   sodipodi:docname="drawing.svg"
   xmlns:inkscape="http://www.inkscape.org/namespaces/inkscape"
   xmlns:sodipodi="http://sodipodi.sourceforge.net/DTD/sodipodi-0.dtd"
   xmlns:xlink="http://www.w3.org/1999/xlink"
   xmlns="http://www.w3.org/2000/svg"
   xmlns:svg="http://www.w3.org/2000/svg">
  <sodipodi:namedview
     id="namedview1"
     pagecolor="#505050"
     bordercolor="#eeeeee"
     borderopacity="1"
     inkscape:showpageshadow="0"
     inkscape:pageopacity="0"
     inkscape:pagecheckerboard="0"
     inkscape:deskcolor="#505050"
     inkscape:document-units="mm"
     inkscape:zoom="0.71268238"
     inkscape:cx="521.27008"
     inkscape:cy="397.09134"
     inkscape:window-width="1920"
     inkscape:window-height="1011"
     inkscape:window-x="0"
     inkscape:window-y="0"
     inkscape:window-maximized="1"
     inkscape:current-layer="svg1" />
  <defs
     id="defs1">
    <pattern
       inkscape:collect="always"
       xlink:href="#Wave"
       preserveAspectRatio="xMidYMid"
       id="pattern630"
       patternTransform="scale(1)"
       x="0"
       y="0" />
    <pattern
       inkscape:collect="always"
       xlink:href="#Wave"
       preserveAspectRatio="xMidYMid"
       id="pattern629"
       patternTransform="scale(1)" />
    <pattern
       inkscape:collect="always"
       xlink:href="#Wave"
       preserveAspectRatio="xMidYMid"
       id="pattern628"
       patternTransform="scale(1)" />
    <pattern
       inkscape:collect="always"
       xlink:href="#Wave"
       preserveAspectRatio="xMidYMid"
       id="pattern627"
       patternTransform="scale(1)" />
    <pattern
       patternUnits="userSpaceOnUse"
       width="24"
       height="10"
       preserveAspectRatio="xMidYMid"
       id="Wave"
       style="fill:#6d28d9"
       x="0"
       y="0"
       inkscape:collect="always"
       inkscape:isstock="true"
       inkscape:label="Wave">
      <g
         id="wave_g"
         style="display:inline">
        <path
           d="M 12,-2 C 9.1666695,-2 7.1679672,-0.56445187 5.4179687,0.68554687 3.6679703,1.9355456 2.1666645,3 0,3 V 5 C 2.8333305,5 4.8320328,3.5644519 6.5820312,2.3144531 8.3320297,1.0644544 9.8333355,0 12,0 14.166665,0 15.667971,1.0644544 17.417969,2.3144531 19.167967,3.5644519 21.166669,5 24,5 V 3 C 21.833335,3 20.332029,1.9355456 18.582031,0.68554687 16.832033,-0.56445189 14.833331,-2 12,-2 Z"
           id="path3" />
        <path
           d="M 12,3 C 9.1666695,3 7.1679672,4.4355481 5.4179687,5.6855469 3.6679703,6.9355456 2.1666645,8 0,8 v 2 C 2.8333305,10 4.8320328,8.5644519 6.5820312,7.3144531 8.3320297,6.0644544 9.8333355,5 12,5 14.166665,5 15.667971,6.0644544 17.417969,7.3144531 19.167967,8.5644519 21.166669,10 24,10 V 8 C 21.833335,8 20.332029,6.9355456 18.582031,5.6855469 16.832033,4.4355481 14.833331,3 12,3 Z"
           id="path4" />
        <path
           d="M 12,8 C 9.1666695,8 7.1679672,9.4355481 5.4179687,10.685547 3.6679703,11.935546 2.1666645,13 0,13 v 2 C 2.8333305,15 4.8320328,13.564452 6.5820312,12.314453 8.3320297,11.064454 9.8333355,10 12,10 c 2.166665,0 3.667971,1.064454 5.417969,2.314453 C 19.167967,13.564452 21.166669,15 24,15 V 13 C 21.833335,13 20.332029,11.935546 18.582031,10.685547 16.832033,9.4355481 14.833331,8 12,8 Z"
           id="path626" />
      </g>
    </pattern>
    <clipPath
       clipPathUnits="userSpaceOnUse"
       id="clipPath557">
      <path
         id="path557"
         style="stroke-width:0.1;stroke-linecap:square;paint-order:markers fill stroke;stop-color:#000000"
         d="m 438.25066,553.76374 859.87054,0 v 201.39554 l -859.87054,0 z"
         sodipodi:nodetypes="ccccc" />
    </clipPath>
    <linearGradient
       id="linearGradient442"
       inkscape:collect="always">
      <stop
         style="stop-color:#ff2777;stop-opacity:1;"
         offset="0"
         id="stop443" />
      <stop
         style="stop-color:#ff2777;stop-opacity:0;"
         offset="1"
         id="stop444" />
    </linearGradient>
    <pattern
       inkscape:collect="always"
       xlink:href="#shading33"
       preserveAspectRatio="xMidYMid"
       id="pattern329"
       patternTransform="translate(956.48011,1282.2992)"
       x="0"
       y="0" />
    <pattern
       patternUnits="userSpaceOnUse"
       width="684.32459"
       height="639.79"
       patternTransform="translate(956.48011,1282.2992)"
       preserveAspectRatio="xMidYMid"
       id="shading33"
       style="fill:#6d28dd"
       inkscape:label="Circle vertical lines halftone shading"
       inkscape:collect="always"
       inkscape:isstock="true">
      <path
         id="path33"
         style="fill-rule:nonzero;stroke:none;stroke-width:0.0239514;stroke-linecap:square;paint-order:markers fill stroke;stop-color:#000000"
         d="M 684.32459,0.001 H 342.16229 V 9.929 L 684.32459,0 Z m 0,9.118 h -342.1623 v 9.926 l 342.1623,-9.636 z m 0,9.117 h -342.1623 v 9.926 l 342.1623,-9.344 z m 0,9.118 h -342.1623 v 9.925 l 342.1623,-9.053 z m 0,9.118 h -342.1623 v 9.923 l 342.1623,-8.76 z m 0,9.117 h -342.1623 v 9.923 l 342.1623,-8.468 z m 0,9.118 h -342.1623 v 9.921 l 342.1623,-8.176 z m 0,9.118 h -342.1623 v 9.92 l 342.1623,-7.884 z m 0,9.117 h -342.1623 v 9.92 l 342.1623,-7.592 z m 0,9.118 h -342.1623 v 9.918 l 342.1623,-7.3 z m 0,9.117 h -342.1623 v 9.918 l 342.1623,-7.008 z m 0,9.118 h -342.1623 v 9.917 l 342.1623,-6.716 z m 0,9.118 h -342.1623 v 9.915 l 342.1623,-6.424 z m 0,9.117 h -342.1623 v 9.915 l 342.1623,-6.132 z m 0,9.118 h -342.1623 v 9.914 l 342.1623,-5.84 z m 0,9.117 h -342.1623 v 9.913 l 342.1623,-5.548 z m 0,9.118 h -342.1623 v 9.912 l 342.1623,-5.256 z m 0,9.118 h -342.1623 v 9.911 l 342.1623,-4.964 z m 0,9.117 h -342.1623 v 9.91 l 342.1623,-4.672 z m 0,9.118 h -342.1623 v 9.909 l 342.1623,-4.38 z m 0,9.118 h -342.1623 v 9.908 l 342.1623,-4.089 z m 0,9.117 h -342.1623 v 9.907 l 342.1623,-3.796 z m 0,9.118 h -342.1623 v 9.906 l 342.1623,-3.504 z m 0,9.117 h -342.1623 v 9.905 l 342.1623,-3.212 z m 0,9.118 h -342.1623 v 9.904 l 342.1623,-2.92 z m 0,9.118 h -342.1623 v 9.903 l 342.1623,-2.628 z m 0,9.117 h -342.1623 v 9.902 l 342.1623,-2.336 z m 0,9.118 h -342.1623 v 9.901 l 342.1623,-2.044 z m 0,9.117 h -342.1623 v 9.901 l 342.1623,-1.752 z m 0,9.118 h -342.1623 v 9.899 l 342.1623,-1.46 z m 0,9.118 h -342.1623 v 9.898 l 342.1623,-1.168 z m 0,9.117 h -342.1623 v 9.898 l 342.1623,-0.876 z m 0,9.118 h -342.1623 v 9.896 l 342.1623,-0.584 z m 0,9.118 h -342.1623 v 9.895 l 342.1623,-0.292 z m 0,9.117 h -342.1623 v 9.895 h 342.1623 z M 0,10e-4 H 342.16229 V 9.929 L 0,0 Z m 0,9.118 h 342.16229 v 9.926 L 0,9.409 Z m 0,9.117 h 342.16229 v 9.926 L 0,18.818 Z m 0,9.118 h 342.16229 v 9.925 L 0,28.226 Z m 0,9.118 h 342.16229 v 9.923 L 0,37.635 Z m 0,9.117 h 342.16229 v 9.923 L 0,47.044 Z m 0,9.118 h 342.16229 v 9.921 L 0,56.452 Z m 0,9.118 h 342.16229 v 9.92 L 0,65.861 Z m 0,9.117 h 342.16229 v 9.92 L 0,75.27 Z m 0,9.118 h 342.16229 v 9.918 L 0,84.678 Z m 0,9.117 h 342.16229 v 9.918 L 0,94.087 Z m 0,9.118 h 342.16229 v 9.917 L 0,103.496 Z m 0,9.118 h 342.16229 v 9.915 L 0,112.904 Z m 0,9.117 h 342.16229 v 9.915 L 0,122.313 Z m 0,9.118 h 342.16229 v 9.914 L 0,131.722 Z m 0,9.117 h 342.16229 v 9.913 L 0,141.13 Z m 0,9.118 h 342.16229 v 9.912 L 0,150.539 Z m 0,9.118 h 342.16229 v 9.911 L 0,159.948 Z m 0,9.117 h 342.16229 v 9.91 L 0,169.356 Z m 0,9.118 h 342.16229 v 9.909 L 0,178.765 Z m 0,9.118 h 342.16229 v 9.908 L 0,188.173 Z m 0,9.117 h 342.16229 v 9.907 L 0,197.582 Z m 0,9.118 h 342.16229 v 9.906 L 0,206.991 Z m 0,9.117 h 342.16229 v 9.905 L 0,216.399 Z m 0,9.118 h 342.16229 v 9.904 L 0,225.808 Z m 0,9.118 h 342.16229 v 9.903 L 0,235.217 Z m 0,9.117 h 342.16229 v 9.902 L 0,244.625 Z m 0,9.118 h 342.16229 v 9.901 L 0,254.034 Z m 0,9.117 h 342.16229 v 9.901 L 0,263.443 Z m 0,9.118 h 342.16229 v 9.899 L 0,272.851 Z m 0,9.118 h 342.16229 v 9.898 L 0,282.26 Z m 0,9.117 h 342.16229 v 9.898 L 0,291.669 Z m 0,9.118 h 342.16229 v 9.896 L 0,301.077 Z m 0,9.118 h 342.16229 v 9.895 L 0,310.486 Z M 0,310 h 342.16229 v 9.895 H 0 Z m 684.32459,329.789 h -342.1623 v -9.928 l 342.1623,9.929 z m 0,-9.118 h -342.1623 v -9.926 l 342.1623,9.636 z m 0,-9.117 h -342.1623 v -9.926 l 342.1623,9.344 z m 0,-9.118 h -342.1623 v -9.925 l 342.1623,9.053 z m 0,-9.118 h -342.1623 v -9.923 l 342.1623,8.76 z m 0,-9.117 h -342.1623 v -9.923 l 342.1623,8.468 z m 0,-9.118 h -342.1623 v -9.921 l 342.1623,8.176 z m 0,-9.118 h -342.1623 v -9.92 l 342.1623,7.884 z m 0,-9.117 h -342.1623 v -9.92 l 342.1623,7.592 z m 0,-9.118 h -342.1623 v -9.918 l 342.1623,7.3 z m 0,-9.117 h -342.1623 v -9.918 l 342.1623,7.008 z m 0,-9.118 h -342.1623 v -9.917 l 342.1623,6.716 z m 0,-9.118 h -342.1623 v -9.915 l 342.1623,6.424 z m 0,-9.117 h -342.1623 v -9.915 l 342.1623,6.132 z m 0,-9.118 h -342.1623 v -9.914 l 342.1623,5.84 z m 0,-9.117 h -342.1623 v -9.913 l 342.1623,5.548 z m 0,-9.118 h -342.1623 v -9.912 l 342.1623,5.256 z m 0,-9.118 h -342.1623 v -9.911 l 342.1623,4.964 z m 0,-9.117 h -342.1623 v -9.91 l 342.1623,4.672 z m 0,-9.118 h -342.1623 v -9.909 l 342.1623,4.38 z m 0,-9.118 h -342.1623 v -9.908 l 342.1623,4.089 z m 0,-9.117 h -342.1623 v -9.907 l 342.1623,3.796 z m 0,-9.118 h -342.1623 v -9.906 l 342.1623,3.504 z m 0,-9.117 h -342.1623 v -9.905 l 342.1623,3.212 z m 0,-9.118 h -342.1623 v -9.904 l 342.1623,2.92 z m 0,-9.118 h -342.1623 v -9.903 l 342.1623,2.628 z m 0,-9.117 h -342.1623 v -9.902 l 342.1623,2.336 z m 0,-9.118 h -342.1623 v -9.901 l 342.1623,2.044 z m 0,-9.117 h -342.1623 v -9.901 l 342.1623,1.752 z m 0,-9.118 h -342.1623 v -9.899 l 342.1623,1.46 z m 0,-9.118 h -342.1623 v -9.898 l 342.1623,1.168 z m 0,-9.117 h -342.1623 v -9.898 l 342.1623,0.876 z m 0,-9.118 h -342.1623 v -9.896 l 342.1623,0.584 z m 0,-9.118 h -342.1623 v -9.895 l 342.1623,0.292 z m 0,-9.117 h -342.1623 v -9.895 h 342.1623 z M 0,639.789 h 342.16229 v -9.928 L 0,639.79 Z m 0,-9.118 h 342.16229 v -9.926 L 0,630.381 Z m 0,-9.117 h 342.16229 v -9.926 L 0,620.972 Z m 0,-9.118 h 342.16229 v -9.925 L 0,611.564 Z m 0,-9.118 h 342.16229 v -9.923 L 0,602.155 Z m 0,-9.117 h 342.16229 v -9.923 L 0,592.746 Z m 0,-9.118 h 342.16229 v -9.921 L 0,583.338 Z m 0,-9.118 h 342.16229 v -9.92 L 0,573.929 Z m 0,-9.117 h 342.16229 v -9.92 L 0,564.52 Z m 0,-9.118 h 342.16229 v -9.918 L 0,555.112 Z m 0,-9.117 h 342.16229 v -9.918 L 0,545.703 Z m 0,-9.118 h 342.16229 v -9.917 L 0,536.294 Z m 0,-9.118 h 342.16229 v -9.915 L 0,526.886 Z m 0,-9.117 h 342.16229 v -9.915 L 0,517.477 Z m 0,-9.118 h 342.16229 v -9.914 L 0,508.068 Z m 0,-9.117 h 342.16229 v -9.913 L 0,498.66 Z m 0,-9.118 h 342.16229 v -9.912 L 0,489.251 Z m 0,-9.118 h 342.16229 v -9.911 L 0,479.842 Z m 0,-9.117 h 342.16229 v -9.91 L 0,470.434 Z m 0,-9.118 h 342.16229 v -9.909 L 0,461.025 Z m 0,-9.118 h 342.16229 v -9.908 L 0,451.617 Z m 0,-9.117 h 342.16229 v -9.907 L 0,442.208 Z m 0,-9.118 h 342.16229 v -9.906 L 0,432.799 Z m 0,-9.117 h 342.16229 v -9.905 L 0,423.391 Z m 0,-9.118 h 342.16229 v -9.904 L 0,413.982 Z m 0,-9.118 h 342.16229 v -9.903 L 0,404.573 Z m 0,-9.117 h 342.16229 v -9.902 L 0,395.165 Z m 0,-9.118 h 342.16229 v -9.901 L 0,385.756 Z m 0,-9.117 h 342.16229 v -9.901 L 0,376.347 Z m 0,-9.118 h 342.16229 v -9.899 L 0,366.939 Z m 0,-9.118 h 342.16229 v -9.898 L 0,357.53 Z m 0,-9.117 h 342.16229 v -9.898 L 0,348.121 Z m 0,-9.118 h 342.16229 v -9.896 L 0,338.713 Z m 0,-9.118 h 342.16229 v -9.895 L 0,329.304 Z m 0,-9.117 h 342.16229 v -9.895 H 0 Z" />
    </pattern>
    <clipPath
       clipPathUnits="userSpaceOnUse"
       id="clipPath5">
      <path
         id="path5"
         style="stroke-width:0.1;stroke-linecap:square;paint-order:markers fill stroke;stop-color:#000000"
         d="m 438.25066,553.76374 859.87054,0 v 201.39554 l -859.87054,0 z"
         sodipodi:nodetypes="ccccc" />
    </clipPath>
    <clipPath
       clipPathUnits="userSpaceOnUse"
       id="clipPath51">
      <path
         id="path51"
         style="stroke-width:0.0999999;stroke-linecap:square;paint-order:markers fill stroke;stop-color:#000000"
         d="m 1806.4991,-753.5228 h 1637.2646 v 66.90533 H 1806.4991 Z" />
    </clipPath>
    <clipPath
       clipPathUnits="userSpaceOnUse"
       id="clipPath33">
      <rect
         style="fill:#000000;stroke:none;stroke-width:0.999995;stroke-linecap:butt;stroke-linejoin:bevel;paint-order:stroke markers fill;stop-color:#000000"
         id="rect33"
         width="46.19186"
         height="80.006783"
         x="74.999985"
         y="399.99661" />
    </clipPath>
    <clipPath
       clipPathUnits="userSpaceOnUse"
       id="clipPath25">
      <rect
         style="fill:#ff0000;stroke:none;stroke-width:3;stroke-linecap:square;stroke-linejoin:miter;paint-order:stroke markers fill;stop-color:#000000"
         id="rect25-8"
         width="78"
         height="45.033199"
         x="763.61322"
         y="452.82422" />
    </clipPath>
    <pattern
       inkscape:collect="always"
       xlink:href="#pattern6-7"
       preserveAspectRatio="xMidYMid"
       id="pattern70"
       patternTransform="translate(190,350)" />
    <pattern
       patternUnits="userSpaceOnUse"
       width="29"
       height="20"
       patternTransform="translate(190,350)"
       preserveAspectRatio="xMidYMid"
       style="fill:#000000"
       id="pattern6-7"
       inkscape:label=""
       inkscape:collect="always"
       inkscape:isstock="true">
      <path
         style="fill:none;stroke:#000000;stroke-width:10;stroke-linecap:butt;stroke-dasharray:none;paint-order:stroke markers fill;stop-color:#000000"
         d="M 0,5 C 19,5 10,15 29,15"
         id="path4-2"
         sodipodi:nodetypes="cc" />
    </pattern>
    <inkscape:path-effect
       effect="spiro"
       id="path-effect66"
       is_visible="true"
       lpeversion="1" />
    <inkscape:path-effect
       effect="spiro"
       id="path-effect65"
       is_visible="true"
       lpeversion="1" />
    <inkscape:path-effect
       effect="spiro"
       id="path-effect64"
       is_visible="true"
       lpeversion="1" />
    <inkscape:path-effect
       effect="spiro"
       id="path-effect63"
       is_visible="true"
       lpeversion="1" />
    <rect
       x="198.43532"
       y="142.87343"
       width="819.53787"
       height="593.32161"
       id="rect45" />
    <inkscape:path-effect
       effect="spiro"
       id="path-effect2"
       is_visible="true"
       lpeversion="1" />
    <pattern
       patternUnits="userSpaceOnUse"
       width="684.32459"
       height="639.79"
       patternTransform="translate(956.48011,1282.2992)"
       preserveAspectRatio="xMidYMid"
       id="shading33-5"
       style="fill:#6d28dd"
       inkscape:label="Circle vertical lines halftone shading"
       inkscape:collect="always"
       inkscape:isstock="true">
      <path
         id="path33-3"
         style="fill-rule:nonzero;stroke:none;stroke-width:0.0239514;stroke-linecap:square;paint-order:markers fill stroke;stop-color:#000000"
         d="M 684.32459,0.001 H 342.16229 V 9.929 L 684.32459,0 Z m 0,9.118 h -342.1623 v 9.926 l 342.1623,-9.636 z m 0,9.117 h -342.1623 v 9.926 l 342.1623,-9.344 z m 0,9.118 h -342.1623 v 9.925 l 342.1623,-9.053 z m 0,9.118 h -342.1623 v 9.923 l 342.1623,-8.76 z m 0,9.117 h -342.1623 v 9.923 l 342.1623,-8.468 z m 0,9.118 h -342.1623 v 9.921 l 342.1623,-8.176 z m 0,9.118 h -342.1623 v 9.92 l 342.1623,-7.884 z m 0,9.117 h -342.1623 v 9.92 l 342.1623,-7.592 z m 0,9.118 h -342.1623 v 9.918 l 342.1623,-7.3 z m 0,9.117 h -342.1623 v 9.918 l 342.1623,-7.008 z m 0,9.118 h -342.1623 v 9.917 l 342.1623,-6.716 z m 0,9.118 h -342.1623 v 9.915 l 342.1623,-6.424 z m 0,9.117 h -342.1623 v 9.915 l 342.1623,-6.132 z m 0,9.118 h -342.1623 v 9.914 l 342.1623,-5.84 z m 0,9.117 h -342.1623 v 9.913 l 342.1623,-5.548 z m 0,9.118 h -342.1623 v 9.912 l 342.1623,-5.256 z m 0,9.118 h -342.1623 v 9.911 l 342.1623,-4.964 z m 0,9.117 h -342.1623 v 9.91 l 342.1623,-4.672 z m 0,9.118 h -342.1623 v 9.909 l 342.1623,-4.38 z m 0,9.118 h -342.1623 v 9.908 l 342.1623,-4.089 z m 0,9.117 h -342.1623 v 9.907 l 342.1623,-3.796 z m 0,9.118 h -342.1623 v 9.906 l 342.1623,-3.504 z m 0,9.117 h -342.1623 v 9.905 l 342.1623,-3.212 z m 0,9.118 h -342.1623 v 9.904 l 342.1623,-2.92 z m 0,9.118 h -342.1623 v 9.903 l 342.1623,-2.628 z m 0,9.117 h -342.1623 v 9.902 l 342.1623,-2.336 z m 0,9.118 h -342.1623 v 9.901 l 342.1623,-2.044 z m 0,9.117 h -342.1623 v 9.901 l 342.1623,-1.752 z m 0,9.118 h -342.1623 v 9.899 l 342.1623,-1.46 z m 0,9.118 h -342.1623 v 9.898 l 342.1623,-1.168 z m 0,9.117 h -342.1623 v 9.898 l 342.1623,-0.876 z m 0,9.118 h -342.1623 v 9.896 l 342.1623,-0.584 z m 0,9.118 h -342.1623 v 9.895 l 342.1623,-0.292 z m 0,9.117 h -342.1623 v 9.895 h 342.1623 z M 0,10e-4 H 342.16229 V 9.929 L 0,0 Z m 0,9.118 h 342.16229 v 9.926 L 0,9.409 Z m 0,9.117 h 342.16229 v 9.926 L 0,18.818 Z m 0,9.118 h 342.16229 v 9.925 L 0,28.226 Z m 0,9.118 h 342.16229 v 9.923 L 0,37.635 Z m 0,9.117 h 342.16229 v 9.923 L 0,47.044 Z m 0,9.118 h 342.16229 v 9.921 L 0,56.452 Z m 0,9.118 h 342.16229 v 9.92 L 0,65.861 Z m 0,9.117 h 342.16229 v 9.92 L 0,75.27 Z m 0,9.118 h 342.16229 v 9.918 L 0,84.678 Z m 0,9.117 h 342.16229 v 9.918 L 0,94.087 Z m 0,9.118 h 342.16229 v 9.917 L 0,103.496 Z m 0,9.118 h 342.16229 v 9.915 L 0,112.904 Z m 0,9.117 h 342.16229 v 9.915 L 0,122.313 Z m 0,9.118 h 342.16229 v 9.914 L 0,131.722 Z m 0,9.117 h 342.16229 v 9.913 L 0,141.13 Z m 0,9.118 h 342.16229 v 9.912 L 0,150.539 Z m 0,9.118 h 342.16229 v 9.911 L 0,159.948 Z m 0,9.117 h 342.16229 v 9.91 L 0,169.356 Z m 0,9.118 h 342.16229 v 9.909 L 0,178.765 Z m 0,9.118 h 342.16229 v 9.908 L 0,188.173 Z m 0,9.117 h 342.16229 v 9.907 L 0,197.582 Z m 0,9.118 h 342.16229 v 9.906 L 0,206.991 Z m 0,9.117 h 342.16229 v 9.905 L 0,216.399 Z m 0,9.118 h 342.16229 v 9.904 L 0,225.808 Z m 0,9.118 h 342.16229 v 9.903 L 0,235.217 Z m 0,9.117 h 342.16229 v 9.902 L 0,244.625 Z m 0,9.118 h 342.16229 v 9.901 L 0,254.034 Z m 0,9.117 h 342.16229 v 9.901 L 0,263.443 Z m 0,9.118 h 342.16229 v 9.899 L 0,272.851 Z m 0,9.118 h 342.16229 v 9.898 L 0,282.26 Z m 0,9.117 h 342.16229 v 9.898 L 0,291.669 Z m 0,9.118 h 342.16229 v 9.896 L 0,301.077 Z m 0,9.118 h 342.16229 v 9.895 L 0,310.486 Z M 0,310 h 342.16229 v 9.895 H 0 Z m 684.32459,329.789 h -342.1623 v -9.928 l 342.1623,9.929 z m 0,-9.118 h -342.1623 v -9.926 l 342.1623,9.636 z m 0,-9.117 h -342.1623 v -9.926 l 342.1623,9.344 z m 0,-9.118 h -342.1623 v -9.925 l 342.1623,9.053 z m 0,-9.118 h -342.1623 v -9.923 l 342.1623,8.76 z m 0,-9.117 h -342.1623 v -9.923 l 342.1623,8.468 z m 0,-9.118 h -342.1623 v -9.921 l 342.1623,8.176 z m 0,-9.118 h -342.1623 v -9.92 l 342.1623,7.884 z m 0,-9.117 h -342.1623 v -9.92 l 342.1623,7.592 z m 0,-9.118 h -342.1623 v -9.918 l 342.1623,7.3 z m 0,-9.117 h -342.1623 v -9.918 l 342.1623,7.008 z m 0,-9.118 h -342.1623 v -9.917 l 342.1623,6.716 z m 0,-9.118 h -342.1623 v -9.915 l 342.1623,6.424 z m 0,-9.117 h -342.1623 v -9.915 l 342.1623,6.132 z m 0,-9.118 h -342.1623 v -9.914 l 342.1623,5.84 z m 0,-9.117 h -342.1623 v -9.913 l 342.1623,5.548 z m 0,-9.118 h -342.1623 v -9.912 l 342.1623,5.256 z m 0,-9.118 h -342.1623 v -9.911 l 342.1623,4.964 z m 0,-9.117 h -342.1623 v -9.91 l 342.1623,4.672 z m 0,-9.118 h -342.1623 v -9.909 l 342.1623,4.38 z m 0,-9.118 h -342.1623 v -9.908 l 342.1623,4.089 z m 0,-9.117 h -342.1623 v -9.907 l 342.1623,3.796 z m 0,-9.118 h -342.1623 v -9.906 l 342.1623,3.504 z m 0,-9.117 h -342.1623 v -9.905 l 342.1623,3.212 z m 0,-9.118 h -342.1623 v -9.904 l 342.1623,2.92 z m 0,-9.118 h -342.1623 v -9.903 l 342.1623,2.628 z m 0,-9.117 h -342.1623 v -9.902 l 342.1623,2.336 z m 0,-9.118 h -342.1623 v -9.901 l 342.1623,2.044 z m 0,-9.117 h -342.1623 v -9.901 l 342.1623,1.752 z m 0,-9.118 h -342.1623 v -9.899 l 342.1623,1.46 z m 0,-9.118 h -342.1623 v -9.898 l 342.1623,1.168 z m 0,-9.117 h -342.1623 v -9.898 l 342.1623,0.876 z m 0,-9.118 h -342.1623 v -9.896 l 342.1623,0.584 z m 0,-9.118 h -342.1623 v -9.895 l 342.1623,0.292 z m 0,-9.117 h -342.1623 v -9.895 h 342.1623 z M 0,639.789 h 342.16229 v -9.928 L 0,639.79 Z m 0,-9.118 h 342.16229 v -9.926 L 0,630.381 Z m 0,-9.117 h 342.16229 v -9.926 L 0,620.972 Z m 0,-9.118 h 342.16229 v -9.925 L 0,611.564 Z m 0,-9.118 h 342.16229 v -9.923 L 0,602.155 Z m 0,-9.117 h 342.16229 v -9.923 L 0,592.746 Z m 0,-9.118 h 342.16229 v -9.921 L 0,583.338 Z m 0,-9.118 h 342.16229 v -9.92 L 0,573.929 Z m 0,-9.117 h 342.16229 v -9.92 L 0,564.52 Z m 0,-9.118 h 342.16229 v -9.918 L 0,555.112 Z m 0,-9.117 h 342.16229 v -9.918 L 0,545.703 Z m 0,-9.118 h 342.16229 v -9.917 L 0,536.294 Z m 0,-9.118 h 342.16229 v -9.915 L 0,526.886 Z m 0,-9.117 h 342.16229 v -9.915 L 0,517.477 Z m 0,-9.118 h 342.16229 v -9.914 L 0,508.068 Z m 0,-9.117 h 342.16229 v -9.913 L 0,498.66 Z m 0,-9.118 h 342.16229 v -9.912 L 0,489.251 Z m 0,-9.118 h 342.16229 v -9.911 L 0,479.842 Z m 0,-9.117 h 342.16229 v -9.91 L 0,470.434 Z m 0,-9.118 h 342.16229 v -9.909 L 0,461.025 Z m 0,-9.118 h 342.16229 v -9.908 L 0,451.617 Z m 0,-9.117 h 342.16229 v -9.907 L 0,442.208 Z m 0,-9.118 h 342.16229 v -9.906 L 0,432.799 Z m 0,-9.117 h 342.16229 v -9.905 L 0,423.391 Z m 0,-9.118 h 342.16229 v -9.904 L 0,413.982 Z m 0,-9.118 h 342.16229 v -9.903 L 0,404.573 Z m 0,-9.117 h 342.16229 v -9.902 L 0,395.165 Z m 0,-9.118 h 342.16229 v -9.901 L 0,385.756 Z m 0,-9.117 h 342.16229 v -9.901 L 0,376.347 Z m 0,-9.118 h 342.16229 v -9.899 L 0,366.939 Z m 0,-9.118 h 342.16229 v -9.898 L 0,357.53 Z m 0,-9.117 h 342.16229 v -9.898 L 0,348.121 Z m 0,-9.118 h 342.16229 v -9.896 L 0,338.713 Z m 0,-9.118 h 342.16229 v -9.895 L 0,329.304 Z m 0,-9.117 h 342.16229 v -9.895 H 0 Z" />
    </pattern>
    <inkscape:path-effect
       effect="spiro"
       id="path-effect66-5"
       is_visible="true"
       lpeversion="1" />
    <inkscape:path-effect
       effect="spiro"
       id="path-effect65-2"
       is_visible="true"
       lpeversion="1" />
    <inkscape:path-effect
       effect="spiro"
       id="path-effect64-1"
       is_visible="true"
       lpeversion="1" />
    <inkscape:path-effect
       effect="spiro"
       id="path-effect63-7"
       is_visible="true"
       lpeversion="1" />
    <rect
       x="198.43532"
       y="142.87343"
       width="819.53784"
       height="593.32159"
       id="rect45-9" />
    <pattern
       inkscape:collect="always"
       xlink:href="#shading33-5"
       preserveAspectRatio="xMidYMid"
       id="pattern5"
       patternTransform="translate(956.48011,1282.2992)"
       x="0"
       y="0" />
    <meshgradient
       inkscape:collect="always"
       id="meshgradient352" />
    <linearGradient
       inkscape:collect="always"
       xlink:href="#linearGradient442"
       id="linearGradient447"
       x1="36.702038"
       y1="65.361031"
       x2="175.72285"
       y2="65.361031"
       gradientUnits="userSpaceOnUse" />
    <linearGradient
       inkscape:collect="always"
       xlink:href="#linearGradient442"
       id="linearGradient448"
       x1="153.47322"
       y1="63.932545"
       x2="264.37128"
       y2="63.932545"
       gradientUnits="userSpaceOnUse" />
    <linearGradient
       inkscape:collect="always"
       xlink:href="#linearGradient442"
       id="linearGradient449"
       x1="124.97973"
       y1="145.40134"
       x2="266.5267"
       y2="145.40134"
       gradientUnits="userSpaceOnUse" />
    <linearGradient
       inkscape:collect="always"
       xlink:href="#linearGradient442"
       id="linearGradient450"
       x1="61.62619"
       y1="153.21114"
       x2="117.44664"
       y2="153.21114"
       gradientUnits="userSpaceOnUse" />
    <filter
       inkscape:collect="always"
       style="color-interpolation-filters:sRGB"
       id="filter450"
       x="-0.053009405"
       y="-0.064283557"
       width="1.1060188"
       height="1.1285671">
      <feGaussianBlur
         inkscape:collect="always"
         stdDeviation="3.0705879"
         id="feGaussianBlur450" />
    </filter>
    <filter
       inkscape:collect="always"
       style="color-interpolation-filters:sRGB"
       id="filter451"
       x="-0.066452112"
       y="-0.084201257"
       width="1.1329042"
       height="1.1684025">
      <feGaussianBlur
         inkscape:collect="always"
         stdDeviation="3.0705879"
         id="feGaussianBlur451" />
    </filter>
    <filter
       inkscape:collect="always"
       style="color-interpolation-filters:sRGB"
       id="filter452"
       x="-0.052063361"
       y="-0.07542569"
       width="1.1041267"
       height="1.1508514">
      <feGaussianBlur
         inkscape:collect="always"
         stdDeviation="3.0705879"
         id="feGaussianBlur452" />
    </filter>
    <filter
       inkscape:collect="always"
       style="color-interpolation-filters:sRGB"
       id="filter453"
       x="-0.1320199"
       y="-0.14004988"
       width="1.2640398"
       height="1.2800998">
      <feGaussianBlur
         inkscape:collect="always"
         stdDeviation="3.0705879"
         id="feGaussianBlur453" />
    </filter>
  </defs>
  <path
     style="display:inline;mix-blend-mode:normal;fill:url(#linearGradient449);fill-opacity:1;stroke:none;stroke-width:0.264999;stroke-linecap:butt;stroke-dasharray:none;stroke-dashoffset:0;stroke-opacity:1;filter:url(#filter452)"
     d="m 147.7575,190.08 c -7.68065,-7.67589 -14.1782,-16.65234 -18.25547,-26.71651 -4.07726,-10.06418 -5.65764,-21.25361 -3.66192,-31.92736 1.99571,-10.67374 7.70719,-20.76184 16.3698,-27.30942 8.66261,-6.54758 20.30013,-9.284388 30.79259,-6.48796 2.91304,0.776377 5.70222,1.948896 8.53875,2.97 12.12273,4.36398 25.03546,5.94151 37.63401,8.63993 12.59855,2.69842 25.33879,6.74644 35.13099,15.12007 4.35768,3.72639 8.07126,8.31166 10.23606,13.62099 2.1648,5.30933 2.69789,11.3765 0.90144,16.82151 -1.53593,4.65538 -4.72026,8.69551 -8.70349,11.55306 -3.98323,2.85755 -8.73434,4.56261 -13.59116,5.22818 -9.71364,1.33115 -19.55513,-1.40982 -28.5666,-5.27249 -5.21703,-2.23623 -10.27434,-4.85741 -15.61148,-6.78952 -5.33714,-1.93211 -11.05152,-3.16733 -16.68727,-2.49173 -5.86719,0.70335 -11.47138,3.54539 -15.43073,7.93199 -3.95935,4.38659 -6.22003,10.29124 -6.10177,16.19926 0.0465,2.32247 0.44512,4.6507 0.17058,6.95735 -0.13726,1.15333 -0.44778,2.29766 -1.02428,3.30595 -0.57649,1.0083 -1.4315,1.87571 -2.48755,2.3592 -0.83664,0.38304 -1.77758,0.51607 -2.69465,0.44082 -0.91708,-0.0752 -1.81105,-0.3539 -2.63772,-0.75801 -1.65334,-0.80821 -3.01843,-2.09442 -4.32013,-3.39531 z"
     id="path63-6"
     inkscape:path-effect="#path-effect63-7"
     inkscape:original-d="m 147.7575,190.08 c -3.2175,-1.2375 16.83,-61.6275 25.245,-92.44125 8.415,-30.813751 5.6925,1.979998 8.53875,2.97 2.84625,0.99 48.51,16.0875 72.765,23.76 24.25499,7.6725 7.1775,20.0475 11.1375,30.4425 3.96,10.395 -33.66,7.6725 -50.86125,11.50875 -17.20125,3.83625 -21.5325,-6.1875 -32.29875,-9.28125 -10.76625,-3.09375 -14.47875,16.0875 -21.5325,24.13125 -7.05375,8.04375 -2.10375,8.415 -3.34125,12.6225 -1.2375,4.2075 -6.435,-2.475 -9.6525,-3.7125 z"
     transform="translate(-13.312026,3.8647764)" />
  <path
     style="display:inline;mix-blend-mode:normal;fill:url(#linearGradient448);fill-opacity:1;stroke:none;stroke-width:0.264999;stroke-linecap:butt;stroke-dasharray:none;stroke-dashoffset:0;stroke-opacity:1;filter:url(#filter451)"
     d="m 195.64875,54.573749 c 3.14037,2.533851 5.56611,5.853361 7.57176,9.354748 2.00565,3.501386 3.6217,7.208861 5.3945,10.833708 1.7728,3.624848 3.72303,7.198742 6.30987,10.295606 2.58685,3.096864 5.86068,5.714234 9.68137,7.012187 3.48622,1.184329 7.23758,1.224813 10.89983,1.604664 1.83112,0.189925 3.66148,0.469231 5.41877,1.017889 1.75729,0.548657 3.44591,1.3757 4.84265,2.574949 1.97922,1.699364 3.26994,4.04059 4.85122,6.11537 0.79063,1.03739 1.6679,2.02192 2.71446,2.80037 1.04657,0.77845 2.27437,1.34546 3.57182,1.47926 1.16325,0.11996 2.35586,-0.11519 3.40305,-0.63568 1.0472,-0.52049 1.94842,-1.32142 2.61844,-2.27986 1.34004,-1.91688 1.71454,-4.41615 1.26155,-6.710695 -0.453,-2.294541 -1.68051,-4.389514 -3.26015,-6.114291 -1.57964,-1.724776 -3.50322,-3.102224 -5.50789,-4.306974 -6.93692,-4.168899 -14.85623,-6.34417 -22.64625,-8.53875 -3.75651,-1.058271 -7.57472,-2.16158 -10.83359,-4.308915 -1.62944,-1.073667 -3.10296,-2.406712 -4.21967,-4.006955 -1.11671,-1.600243 -1.86744,-3.475327 -2.02424,-5.420381 -0.17216,-2.135535 0.37582,-4.293691 1.35995,-6.19675 0.98413,-1.903059 2.39041,-3.564064 3.96345,-5.018607 3.14608,-2.909088 6.94562,-5.013748 10.2691,-7.718393 1.84338,-1.500146 3.55004,-3.19924 4.83946,-5.195713 1.28942,-1.996474 2.14889,-4.308529 2.21429,-6.684287 0.0645,-2.341405 -0.65141,-4.679441 -1.90901,-6.655487 -1.25761,-1.976045 -3.04211,-3.594975 -5.06833,-4.77004 -4.05243,-2.350128 -8.93881,-2.896031 -13.60687,-2.502845 -4.66805,0.393186 -9.21,1.661888 -13.77083,2.731543 -4.56083,1.069655 -9.2404,1.949143 -13.90746,1.54433 -5.74837,-0.498604 -11.14637,-2.911385 -16.79751,-4.076252 -2.82557,-0.582434 -5.74912,-0.850329 -8.59841,-0.39795 -2.84929,0.452379 -5.63039,1.66697 -7.64533,3.731702 -1.51791,1.555422 -2.55726,3.548277 -3.096,5.653781 -0.53874,2.105505 -0.58811,4.32074 -0.27921,6.472011 0.61781,4.302542 2.62507,8.277497 4.86021,12.005458 1.23182,2.054529 2.57504,4.099363 4.4442,5.597598 0.93458,0.749117 1.99585,1.351793 3.1439,1.693257 1.14805,0.341464 2.38509,0.415229 3.5494,0.134144 1.78521,-0.430984 3.26141,-1.637493 4.82625,-2.598751 4.49861,-2.763434 10.22278,-3.556078 15.22125,-1.856247 2.16189,0.735194 4.16287,1.907347 5.94,3.341248 z"
     id="path64-2"
     inkscape:path-effect="#path-effect64-1"
     inkscape:original-d="m 195.64875,54.573749 c 1.98,1.11375 19.18125,24.997499 28.9575,37.496249 9.77625,12.498752 14.23125,3.58875 21.16125,5.197502 6.93,1.608748 7.30125,6.80625 11.1375,10.395 3.83625,3.58875 -0.99,-13.365001 -1.485,-20.0475 -0.495,-6.682502 -15.0975,-5.6925 -22.64625,-8.53875 -7.54875,-2.84625 -11.385,-9.157502 -17.0775,-13.736251 -5.6925,-4.578749 10.395,-12.622501 15.5925,-18.93375 5.1975,-6.311249 4.7025,-7.92 7.05375,-11.88 2.35125,-3.960001 -32.175,-6.435 -48.2625,-9.652499 -16.0875,-3.2175 -22.0275,-0.495 -33.04125,-0.7425 -11.01375,-0.2475 1.2375,15.96375 1.485,24.13125 0.2475,8.167499 7.30125,5.07375 11.1375,7.424999 3.83625,2.351252 3.09375,-1.7325 4.82625,-2.598751 1.7325,-0.866248 10.1475,-1.237498 15.22125,-1.856247 5.07375,-0.618752 3.96,2.227497 5.94,3.341248 z"
     transform="translate(-13.312026,3.8647764)" />
  <path
     style="display:inline;mix-blend-mode:normal;fill:url(#linearGradient447);fill-opacity:1;stroke:none;stroke-width:0.264999;stroke-linecap:butt;stroke-dasharray:none;stroke-dashoffset:0;stroke-opacity:1;filter:url(#filter450)"
     d="m 108.405,108.77625 c 7.38534,-3.60891 12.90923,-10.038283 18.76623,-15.805687 2.9285,-2.883703 6.00565,-5.651078 9.4822,-7.843213 3.47655,-2.192134 7.38441,-3.799503 11.47532,-4.194852 5.17399,-0.500018 10.36298,0.942714 15.55561,0.704291 2.59631,-0.119211 5.22143,-0.681482 7.44507,-2.027036 1.11181,-0.672778 2.11272,-1.538036 2.89565,-2.575235 0.78294,-1.037198 1.34438,-2.248333 1.57617,-3.527019 0.45041,-2.484736 -0.38565,-5.098886 -1.92458,-7.101004 -1.53893,-2.002118 -3.72478,-3.435265 -6.05353,-4.411827 -4.65752,-1.953123 -9.85701,-2.172151 -14.66814,-3.708418 -6.41525,-2.048485 -11.89675,-6.373253 -16.43055,-11.352848 -4.53379,-4.979595 -8.23555,-10.643879 -12.1557,-16.119652 -5.45678,-7.62218 -11.6459,-15.147219 -20.0475,-19.305 C 96.731984,7.7529783 87.74115,7.0970313 79.566289,9.3048435 71.391428,11.512656 64.059132,16.496369 58.6575,23.0175 53.537597,29.198514 50.145379,36.644166 47.660527,44.275932 45.175675,51.907699 43.547016,59.786164 41.580001,67.5675 c -2.213482,8.756336 -4.878998,17.541316 -4.877964,26.573089 5.17e-4,4.515886 0.686299,9.065571 2.377325,13.252891 1.691026,4.18732 4.420557,8.00333 8.069387,10.66402 3.519993,2.56674 7.796984,3.99148 12.129358,4.44871 4.332374,0.45722 8.725924,-0.0215 12.969705,-1.00583 8.487562,-1.9686 16.373751,-5.91208 24.648438,-8.64038 3.86967,-1.2759 7.84787,-2.29483 11.50875,-4.08375 z"
     id="path65-6"
     inkscape:path-effect="#path-effect65-2"
     inkscape:original-d="m 108.405,108.77625 c 3.83625,-1.36125 26.4825,-18.562502 39.72375,-27.843752 13.24125,-9.28125 18.19125,-4.95 27.4725,-7.424999 C 184.8825,71.032499 160.6275,63.36 152.955,58.28625 c -7.6725,-5.073751 -19.0575,-18.315001 -28.58625,-27.4725 -9.52875,-9.1575 -13.365,-12.87 -20.0475,-19.305 -6.6825,-6.4350001 -30.442501,7.6725 -45.66375,11.50875 -15.221252,3.83625 -11.385,29.699998 -17.077499,44.55 -5.6925,14.849998 3.712498,33.66 5.568748,50.49 1.856251,16.83 33.165,-3.465 49.747501,-5.1975 16.5825,-1.7325 7.6725,-2.7225 11.50875,-4.08375 z"
     transform="translate(-13.312026,3.8647764)" />
  <path
     style="display:inline;mix-blend-mode:normal;fill:url(#linearGradient450);fill-opacity:1;stroke:none;stroke-width:0.264999;stroke-linecap:butt;stroke-dasharray:none;stroke-dashoffset:0;stroke-opacity:1;filter:url(#filter453)"
     d="m 62.369998,139.96125 c 0.381534,-0.45641 0.971702,-0.69695 1.561086,-0.7776 0.589384,-0.0806 1.187691,-0.0183 1.780165,0.0351 8.713111,0.78541 17.860312,-0.50692 25.244999,-5.1975 2.799562,-1.77822 5.310352,-4.01584 8.260117,-5.53192 1.474885,-0.75804 3.061075,-1.33039 4.708365,-1.52101 1.64729,-0.19061 3.36099,0.0149 4.85152,0.74168 1.61878,0.78932 2.91096,2.16382 3.77965,3.74143 0.86869,1.5776 1.33431,3.35239 1.55884,5.1393 0.44905,3.57382 -0.0383,7.20362 0.23026,10.79552 0.25754,3.44433 1.20425,6.7932 1.9839,10.15799 0.77964,3.3648 1.39832,6.83151 0.9861,10.26076 -0.28976,2.41047 -1.10231,4.77601 -2.4936,6.76565 -1.39129,1.98964 -3.3761,3.58799 -5.6739,4.37185 -3.081,1.05103 -6.53186,0.58463 -9.518193,-0.71114 -2.986336,-1.29577 -5.570503,-3.36338 -7.974132,-5.55878 -2.403628,-2.1954 -4.672274,-4.5474 -7.23686,-6.55242 -2.564586,-2.00502 -5.480329,-3.6737 -8.683316,-4.25516 -2.791006,-0.50667 -5.694994,-0.17181 -8.462223,-0.79541 -1.383614,-0.3118 -2.735726,-0.87626 -3.798613,-1.81534 -1.062886,-0.93909 -1.811873,-2.28262 -1.846665,-3.7005 -0.0201,-0.81931 0.193309,-1.62988 0.501885,-2.38912 0.308576,-0.75925 0.711598,-1.47568 1.091331,-2.20196 0.379733,-0.72627 0.739206,-1.46991 0.951996,-2.26136 0.212791,-0.79145 0.273164,-1.63923 0.05354,-2.42881 -0.312858,-1.12477 -1.148452,-2.01646 -1.730398,-3.02854 -0.290973,-0.50605 -0.523041,-1.05748 -0.5792,-1.6385 -0.05616,-0.58103 0.07896,-1.19635 0.453347,-1.64421 z"
     id="path66-1"
     inkscape:path-effect="#path-effect66-5"
     inkscape:original-d="m 62.369998,139.96125 c -0.618749,-2.10375 1.980002,-0.37125 3.341251,-0.7425 1.36125,-0.37125 16.953751,-3.465 25.244999,-5.1975 8.29125,-1.7325 11.756252,-4.2075 17.820002,-6.31125 6.06375,-2.10375 3.7125,13.1175 5.56875,19.67625 1.85625,6.55875 1.98,13.6125 2.97,20.41875 0.99,6.80625 -5.445,7.425 -8.1675,11.1375 -2.7225,3.7125 -22.398751,-11.385 -33.412501,-17.0775 -11.013749,-5.6925 -9.28125,-4.2075 -14.107501,-6.31125 -4.826249,-2.10375 1.732502,-6.1875 2.598751,-9.28125 0.866251,-3.09375 -1.237499,-4.2075 -1.856251,-6.31125 z"
     transform="translate(-13.312026,3.8647764)" />
  <g
     inkscape:label="Layer 1"
     inkscape:groupmode="layer"
     id="layer1">
    <text
       xml:space="preserve"
       transform="scale(0.26458333)"
       id="text45"
       style="font-weight:bold;font-size:96px;font-family:Archivo;-inkscape-font-specification:'Archivo Bold';text-align:start;writing-mode:lr-tb;direction:ltr;white-space:pre;shape-inside:url(#rect45);display:inline;fill:url(#pattern329);stroke:none;stroke-width:1.00157;stroke-linecap:butt;stroke-dasharray:none;stroke-dashoffset:0;stroke-opacity:1;fill-opacity:1" />
    <path
       style="fill:url(#pattern630);stroke:none;stroke-width:0.264999;stroke-linecap:butt;stroke-dasharray:none;stroke-dashoffset:0;stroke-opacity:1;fill-opacity:1"
       d="m 147.7575,190.08 c -7.68065,-7.67589 -14.1782,-16.65234 -18.25547,-26.71651 -4.07726,-10.06418 -5.65764,-21.25361 -3.66192,-31.92736 1.99571,-10.67374 7.70719,-20.76184 16.3698,-27.30942 8.66261,-6.54758 20.30013,-9.284388 30.79259,-6.48796 2.91304,0.776377 5.70222,1.948896 8.53875,2.97 12.12273,4.36398 25.03546,5.94151 37.63401,8.63993 12.59855,2.69842 25.33879,6.74644 35.13099,15.12007 4.35768,3.72639 8.07126,8.31166 10.23606,13.62099 2.1648,5.30933 2.69789,11.3765 0.90144,16.82151 -1.53593,4.65538 -4.72026,8.69551 -8.70349,11.55306 -3.98323,2.85755 -8.73434,4.56261 -13.59116,5.22818 -9.71364,1.33115 -19.55513,-1.40982 -28.5666,-5.27249 -5.21703,-2.23623 -10.27434,-4.85741 -15.61148,-6.78952 -5.33714,-1.93211 -11.05152,-3.16733 -16.68727,-2.49173 -5.86719,0.70335 -11.47138,3.54539 -15.43073,7.93199 -3.95935,4.38659 -6.22003,10.29124 -6.10177,16.19926 0.0465,2.32247 0.44512,4.6507 0.17058,6.95735 -0.13726,1.15333 -0.44778,2.29766 -1.02428,3.30595 -0.57649,1.0083 -1.4315,1.87571 -2.48755,2.3592 -0.83664,0.38304 -1.77758,0.51607 -2.69465,0.44082 -0.91708,-0.0752 -1.81105,-0.3539 -2.63772,-0.75801 -1.65334,-0.80821 -3.01843,-2.09442 -4.32013,-3.39531 z"
       id="path63"
       inkscape:path-effect="#path-effect63"
       inkscape:original-d="m 147.7575,190.08 c -3.2175,-1.2375 16.83,-61.6275 25.245,-92.44125 8.415,-30.813751 5.6925,1.979998 8.53875,2.97 2.84625,0.99 48.51,16.0875 72.765,23.76 24.25499,7.6725 7.1775,20.0475 11.1375,30.4425 3.96,10.395 -33.66,7.6725 -50.86125,11.50875 -17.20125,3.83625 -21.5325,-6.1875 -32.29875,-9.28125 -10.76625,-3.09375 -14.47875,16.0875 -21.5325,24.13125 -7.05375,8.04375 -2.10375,8.415 -3.34125,12.6225 -1.2375,4.2075 -6.435,-2.475 -9.6525,-3.7125 z" />
    <path
       style="fill:url(#pattern629);stroke:none;stroke-width:0.264999;stroke-linecap:butt;stroke-dasharray:none;stroke-dashoffset:0;stroke-opacity:1;fill-opacity:1"
       d="m 195.64875,54.573749 c 3.14037,2.533851 5.56611,5.853361 7.57176,9.354748 2.00565,3.501386 3.6217,7.208861 5.3945,10.833708 1.7728,3.624848 3.72303,7.198742 6.30987,10.295606 2.58685,3.096864 5.86068,5.714234 9.68137,7.012187 3.48622,1.184329 7.23758,1.224813 10.89983,1.604664 1.83112,0.189925 3.66148,0.469231 5.41877,1.017889 1.75729,0.548657 3.44591,1.3757 4.84265,2.574949 1.97922,1.699364 3.26994,4.04059 4.85122,6.11537 0.79063,1.03739 1.6679,2.02192 2.71446,2.80037 1.04657,0.77845 2.27437,1.34546 3.57182,1.47926 1.16325,0.11996 2.35586,-0.11519 3.40305,-0.63568 1.0472,-0.52049 1.94842,-1.32142 2.61844,-2.27986 1.34004,-1.91688 1.71454,-4.41615 1.26155,-6.710695 -0.453,-2.294541 -1.68051,-4.389514 -3.26015,-6.114291 -1.57964,-1.724776 -3.50322,-3.102224 -5.50789,-4.306974 -6.93692,-4.168899 -14.85623,-6.34417 -22.64625,-8.53875 -3.75651,-1.058271 -7.57472,-2.16158 -10.83359,-4.308915 -1.62944,-1.073667 -3.10296,-2.406712 -4.21967,-4.006955 -1.11671,-1.600243 -1.86744,-3.475327 -2.02424,-5.420381 -0.17216,-2.135535 0.37582,-4.293691 1.35995,-6.19675 0.98413,-1.903059 2.39041,-3.564064 3.96345,-5.018607 3.14608,-2.909088 6.94562,-5.013748 10.2691,-7.718393 1.84338,-1.500146 3.55004,-3.19924 4.83946,-5.195713 1.28942,-1.996474 2.14889,-4.308529 2.21429,-6.684287 0.0645,-2.341405 -0.65141,-4.679441 -1.90901,-6.655487 -1.25761,-1.976045 -3.04211,-3.594975 -5.06833,-4.77004 -4.05243,-2.350128 -8.93881,-2.896031 -13.60687,-2.502845 -4.66805,0.393186 -9.21,1.661888 -13.77083,2.731543 -4.56083,1.069655 -9.2404,1.949143 -13.90746,1.54433 -5.74837,-0.498604 -11.14637,-2.911385 -16.79751,-4.076252 -2.82557,-0.582434 -5.74912,-0.850329 -8.59841,-0.39795 -2.84929,0.452379 -5.63039,1.66697 -7.64533,3.731702 -1.51791,1.555422 -2.55726,3.548277 -3.096,5.653781 -0.53874,2.105505 -0.58811,4.32074 -0.27921,6.472011 0.61781,4.302542 2.62507,8.277497 4.86021,12.005458 1.23182,2.054529 2.57504,4.099363 4.4442,5.597598 0.93458,0.749117 1.99585,1.351793 3.1439,1.693257 1.14805,0.341464 2.38509,0.415229 3.5494,0.134144 1.78521,-0.430984 3.26141,-1.637493 4.82625,-2.598751 4.49861,-2.763434 10.22278,-3.556078 15.22125,-1.856247 2.16189,0.735194 4.16287,1.907347 5.94,3.341248 z"
       id="path64"
       inkscape:path-effect="#path-effect64"
       inkscape:original-d="m 195.64875,54.573749 c 1.98,1.11375 19.18125,24.997499 28.9575,37.496249 9.77625,12.498752 14.23125,3.58875 21.16125,5.197502 6.93,1.608748 7.30125,6.80625 11.1375,10.395 3.83625,3.58875 -0.99,-13.365001 -1.485,-20.0475 -0.495,-6.682502 -15.0975,-5.6925 -22.64625,-8.53875 -7.54875,-2.84625 -11.385,-9.157502 -17.0775,-13.736251 -5.6925,-4.578749 10.395,-12.622501 15.5925,-18.93375 5.1975,-6.311249 4.7025,-7.92 7.05375,-11.88 2.35125,-3.960001 -32.175,-6.435 -48.2625,-9.652499 -16.0875,-3.2175 -22.0275,-0.495 -33.04125,-0.7425 -11.01375,-0.2475 1.2375,15.96375 1.485,24.13125 0.2475,8.167499 7.30125,5.07375 11.1375,7.424999 3.83625,2.351252 3.09375,-1.7325 4.82625,-2.598751 1.7325,-0.866248 10.1475,-1.237498 15.22125,-1.856247 5.07375,-0.618752 3.96,2.227497 5.94,3.341248 z" />
    <path
       style="fill:url(#pattern628);stroke:none;stroke-width:0.264999;stroke-linecap:butt;stroke-dasharray:none;stroke-dashoffset:0;stroke-opacity:1;fill-opacity:1"
       d="m 108.405,108.77625 c 7.38534,-3.60891 12.90923,-10.038283 18.76623,-15.805687 2.9285,-2.883703 6.00565,-5.651078 9.4822,-7.843213 3.47655,-2.192134 7.38441,-3.799503 11.47532,-4.194852 5.17399,-0.500018 10.36298,0.942714 15.55561,0.704291 2.59631,-0.119211 5.22143,-0.681482 7.44507,-2.027036 1.11181,-0.672778 2.11272,-1.538036 2.89565,-2.575235 0.78294,-1.037198 1.34438,-2.248333 1.57617,-3.527019 0.45041,-2.484736 -0.38565,-5.098886 -1.92458,-7.101004 -1.53893,-2.002118 -3.72478,-3.435265 -6.05353,-4.411827 -4.65752,-1.953123 -9.85701,-2.172151 -14.66814,-3.708418 -6.41525,-2.048485 -11.89675,-6.373253 -16.43055,-11.352848 -4.53379,-4.979595 -8.23555,-10.643879 -12.1557,-16.119652 -5.45678,-7.62218 -11.6459,-15.147219 -20.0475,-19.305 C 96.731984,7.7529783 87.74115,7.0970313 79.566289,9.3048435 71.391428,11.512656 64.059132,16.496369 58.6575,23.0175 53.537597,29.198514 50.145379,36.644166 47.660527,44.275932 45.175675,51.907699 43.547016,59.786164 41.580001,67.5675 c -2.213482,8.756336 -4.878998,17.541316 -4.877964,26.573089 5.17e-4,4.515886 0.686299,9.065571 2.377325,13.252891 1.691026,4.18732 4.420557,8.00333 8.069387,10.66402 3.519993,2.56674 7.796984,3.99148 12.129358,4.44871 4.332374,0.45722 8.725924,-0.0215 12.969705,-1.00583 8.487562,-1.9686 16.373751,-5.91208 24.648438,-8.64038 3.86967,-1.2759 7.84787,-2.29483 11.50875,-4.08375 z"
       id="path65"
       inkscape:path-effect="#path-effect65"
       inkscape:original-d="m 108.405,108.77625 c 3.83625,-1.36125 26.4825,-18.562502 39.72375,-27.843752 13.24125,-9.28125 18.19125,-4.95 27.4725,-7.424999 C 184.8825,71.032499 160.6275,63.36 152.955,58.28625 c -7.6725,-5.073751 -19.0575,-18.315001 -28.58625,-27.4725 -9.52875,-9.1575 -13.365,-12.87 -20.0475,-19.305 -6.6825,-6.4350001 -30.442501,7.6725 -45.66375,11.50875 -15.221252,3.83625 -11.385,29.699998 -17.077499,44.55 -5.6925,14.849998 3.712498,33.66 5.568748,50.49 1.856251,16.83 33.165,-3.465 49.747501,-5.1975 16.5825,-1.7325 7.6725,-2.7225 11.50875,-4.08375 z" />
    <path
       style="fill:url(#pattern627);stroke:none;stroke-width:0.264999;stroke-linecap:butt;stroke-dasharray:none;stroke-dashoffset:0;stroke-opacity:1;fill-opacity:1"
       d="m 62.369998,139.96125 c 0.381534,-0.45641 0.971702,-0.69695 1.561086,-0.7776 0.589384,-0.0806 1.187691,-0.0183 1.780165,0.0351 8.713111,0.78541 17.860312,-0.50692 25.244999,-5.1975 2.799562,-1.77822 5.310352,-4.01584 8.260117,-5.53192 1.474885,-0.75804 3.061075,-1.33039 4.708365,-1.52101 1.64729,-0.19061 3.36099,0.0149 4.85152,0.74168 1.61878,0.78932 2.91096,2.16382 3.77965,3.74143 0.86869,1.5776 1.33431,3.35239 1.55884,5.1393 0.44905,3.57382 -0.0383,7.20362 0.23026,10.79552 0.25754,3.44433 1.20425,6.7932 1.9839,10.15799 0.77964,3.3648 1.39832,6.83151 0.9861,10.26076 -0.28976,2.41047 -1.10231,4.77601 -2.4936,6.76565 -1.39129,1.98964 -3.3761,3.58799 -5.6739,4.37185 -3.081,1.05103 -6.53186,0.58463 -9.518193,-0.71114 -2.986336,-1.29577 -5.570503,-3.36338 -7.974132,-5.55878 -2.403628,-2.1954 -4.672274,-4.5474 -7.23686,-6.55242 -2.564586,-2.00502 -5.480329,-3.6737 -8.683316,-4.25516 -2.791006,-0.50667 -5.694994,-0.17181 -8.462223,-0.79541 -1.383614,-0.3118 -2.735726,-0.87626 -3.798613,-1.81534 -1.062886,-0.93909 -1.811873,-2.28262 -1.846665,-3.7005 -0.0201,-0.81931 0.193309,-1.62988 0.501885,-2.38912 0.308576,-0.75925 0.711598,-1.47568 1.091331,-2.20196 0.379733,-0.72627 0.739206,-1.46991 0.951996,-2.26136 0.212791,-0.79145 0.273164,-1.63923 0.05354,-2.42881 -0.312858,-1.12477 -1.148452,-2.01646 -1.730398,-3.02854 -0.290973,-0.50605 -0.523041,-1.05748 -0.5792,-1.6385 -0.05616,-0.58103 0.07896,-1.19635 0.453347,-1.64421 z"
       id="path66"
       inkscape:path-effect="#path-effect66"
       inkscape:original-d="m 62.369998,139.96125 c -0.618749,-2.10375 1.980002,-0.37125 3.341251,-0.7425 1.36125,-0.37125 16.953751,-3.465 25.244999,-5.1975 8.29125,-1.7325 11.756252,-4.2075 17.820002,-6.31125 6.06375,-2.10375 3.7125,13.1175 5.56875,19.67625 1.85625,6.55875 1.98,13.6125 2.97,20.41875 0.99,6.80625 -5.445,7.425 -8.1675,11.1375 -2.7225,3.7125 -22.398751,-11.385 -33.412501,-17.0775 -11.013749,-5.6925 -9.28125,-4.2075 -14.107501,-6.31125 -4.826249,-2.10375 1.732502,-6.1875 2.598751,-9.28125 0.866251,-3.09375 -1.237499,-4.2075 -1.856251,-6.31125 z" />
    <text
       xml:space="preserve"
       transform="matrix(0.26458333,0,0,0.26458333,-13.683287,3.8647804)"
       id="text45-0"
       style="font-weight:bold;font-size:96px;font-family:Archivo;-inkscape-font-specification:'Archivo Bold';text-align:start;writing-mode:lr-tb;direction:ltr;white-space:pre;shape-inside:url(#rect45-9);display:inline;fill:url(#meshgradient352);fill-opacity:1;stroke:none;stroke-width:1.00157;stroke-linecap:butt;stroke-dasharray:none;stroke-dashoffset:0;stroke-opacity:1" />
  </g>
  <script
     id="mesh_polyfill"
     type="text/javascript">
!function(){const t=&quot;http://www.w3.org/2000/svg&quot;,e=&quot;http://www.w3.org/1999/xlink&quot;,s=&quot;http://www.w3.org/1999/xhtml&quot;,r=2;if(document.createElementNS(t,&quot;meshgradient&quot;).x)return;const n=(t,e,s,r)=&gt;{let n=new x(.5*(e.x+s.x),.5*(e.y+s.y)),o=new x(.5*(t.x+e.x),.5*(t.y+e.y)),i=new x(.5*(s.x+r.x),.5*(s.y+r.y)),a=new x(.5*(n.x+o.x),.5*(n.y+o.y)),h=new x(.5*(n.x+i.x),.5*(n.y+i.y)),l=new x(.5*(a.x+h.x),.5*(a.y+h.y));return[[t,o,a,l],[l,h,i,r]]},o=t=&gt;{let e=t[0].distSquared(t[1]),s=t[2].distSquared(t[3]),r=.25*t[0].distSquared(t[2]),n=.25*t[1].distSquared(t[3]),o=e&gt;s?e:s,i=r&gt;n?r:n;return 18*(o&gt;i?o:i)},i=(t,e)=&gt;Math.sqrt(t.distSquared(e)),a=(t,e)=&gt;t.scale(2/3).add(e.scale(1/3)),h=t=&gt;{let e,s,r,n,o,i,a,h=new g;return t.match(/(\w+\(\s*[^)]+\))+/g).forEach(t=&gt;{let l=t.match(/[\w.-]+/g),d=l.shift();switch(d){case&quot;translate&quot;:2===l.length?e=new g(1,0,0,1,l[0],l[1]):(console.error(&quot;mesh.js: translate does not have 2 arguments!&quot;),e=new g(1,0,0,1,0,0)),h=h.append(e);break;case&quot;scale&quot;:1===l.length?s=new g(l[0],0,0,l[0],0,0):2===l.length?s=new g(l[0],0,0,l[1],0,0):(console.error(&quot;mesh.js: scale does not have 1 or 2 arguments!&quot;),s=new g(1,0,0,1,0,0)),h=h.append(s);break;case&quot;rotate&quot;:if(3===l.length&amp;&amp;(e=new g(1,0,0,1,l[1],l[2]),h=h.append(e)),l[0]){r=l[0]*Math.PI/180;let t=Math.cos(r),e=Math.sin(r);Math.abs(t)&lt;1e-16&amp;&amp;(t=0),Math.abs(e)&lt;1e-16&amp;&amp;(e=0),a=new g(t,e,-e,t,0,0),h=h.append(a)}else console.error(&quot;math.js: No argument to rotate transform!&quot;);3===l.length&amp;&amp;(e=new g(1,0,0,1,-l[1],-l[2]),h=h.append(e));break;case&quot;skewX&quot;:l[0]?(r=l[0]*Math.PI/180,n=Math.tan(r),o=new g(1,0,n,1,0,0),h=h.append(o)):console.error(&quot;math.js: No argument to skewX transform!&quot;);break;case&quot;skewY&quot;:l[0]?(r=l[0]*Math.PI/180,n=Math.tan(r),i=new g(1,n,0,1,0,0),h=h.append(i)):console.error(&quot;math.js: No argument to skewY transform!&quot;);break;case&quot;matrix&quot;:6===l.length?h=h.append(new g(...l)):console.error(&quot;math.js: Incorrect number of arguments for matrix!&quot;);break;default:console.error(&quot;mesh.js: Unhandled transform type: &quot;+d)}}),h},l=t=&gt;{let e=[],s=t.split(/[ ,]+/);for(let t=0,r=s.length-1;t&lt;r;t+=2)e.push(new x(parseFloat(s[t]),parseFloat(s[t+1])));return e},d=(t,e)=&gt;{for(let s in e)t.setAttribute(s,e[s])},c=(t,e,s,r,n)=&gt;{let o,i,a=[0,0,0,0];for(let h=0;h&lt;3;++h)e[h]&lt;t[h]&amp;&amp;e[h]&lt;s[h]||t[h]&lt;e[h]&amp;&amp;s[h]&lt;e[h]?a[h]=0:(a[h]=.5*((e[h]-t[h])/r+(s[h]-e[h])/n),o=Math.abs(3*(e[h]-t[h])/r),i=Math.abs(3*(s[h]-e[h])/n),a[h]&gt;o?a[h]=o:a[h]&gt;i&amp;&amp;(a[h]=i));return a},u=[[1,0,0,0,0,0,0,0,0,0,0,0,0,0,0,0],[0,0,0,0,1,0,0,0,0,0,0,0,0,0,0,0],[-3,3,0,0,-2,-1,0,0,0,0,0,0,0,0,0,0],[2,-2,0,0,1,1,0,0,0,0,0,0,0,0,0,0],[0,0,0,0,0,0,0,0,1,0,0,0,0,0,0,0],[0,0,0,0,0,0,0,0,0,0,0,0,1,0,0,0],[0,0,0,0,0,0,0,0,-3,3,0,0,-2,-1,0,0],[0,0,0,0,0,0,0,0,2,-2,0,0,1,1,0,0],[-3,0,3,0,0,0,0,0,-2,0,-1,0,0,0,0,0],[0,0,0,0,-3,0,3,0,0,0,0,0,-2,0,-1,0],[9,-9,-9,9,6,3,-6,-3,6,-6,3,-3,4,2,2,1],[-6,6,6,-6,-3,-3,3,3,-4,4,-2,2,-2,-2,-1,-1],[2,0,-2,0,0,0,0,0,1,0,1,0,0,0,0,0],[0,0,0,0,2,0,-2,0,0,0,0,0,1,0,1,0],[-6,6,6,-6,-4,-2,4,2,-3,3,-3,3,-2,-1,-2,-1],[4,-4,-4,4,2,2,-2,-2,2,-2,2,-2,1,1,1,1]],f=t=&gt;{let e=[];for(let s=0;s&lt;16;++s){e[s]=0;for(let r=0;r&lt;16;++r)e[s]+=u[s][r]*t[r]}return e},p=(t,e,s)=&gt;{const r=e*e,n=s*s,o=e*e*e,i=s*s*s;return t[0]+t[1]*e+t[2]*r+t[3]*o+t[4]*s+t[5]*s*e+t[6]*s*r+t[7]*s*o+t[8]*n+t[9]*n*e+t[10]*n*r+t[11]*n*o+t[12]*i+t[13]*i*e+t[14]*i*r+t[15]*i*o},y=t=&gt;{let e=[],s=[],r=[];for(let s=0;s&lt;4;++s)e[s]=[],e[s][0]=n(t[0][s],t[1][s],t[2][s],t[3][s]),e[s][1]=[],e[s][1].push(...n(...e[s][0][0])),e[s][1].push(...n(...e[s][0][1])),e[s][2]=[],e[s][2].push(...n(...e[s][1][0])),e[s][2].push(...n(...e[s][1][1])),e[s][2].push(...n(...e[s][1][2])),e[s][2].push(...n(...e[s][1][3]));for(let t=0;t&lt;8;++t){s[t]=[];for(let r=0;r&lt;4;++r)s[t][r]=[],s[t][r][0]=n(e[0][2][t][r],e[1][2][t][r],e[2][2][t][r],e[3][2][t][r]),s[t][r][1]=[],s[t][r][1].push(...n(...s[t][r][0][0])),s[t][r][1].push(...n(...s[t][r][0][1])),s[t][r][2]=[],s[t][r][2].push(...n(...s[t][r][1][0])),s[t][r][2].push(...n(...s[t][r][1][1])),s[t][r][2].push(...n(...s[t][r][1][2])),s[t][r][2].push(...n(...s[t][r][1][3]))}for(let t=0;t&lt;8;++t){r[t]=[];for(let e=0;e&lt;8;++e)r[t][e]=[],r[t][e][0]=s[t][0][2][e],r[t][e][1]=s[t][1][2][e],r[t][e][2]=s[t][2][2][e],r[t][e][3]=s[t][3][2][e]}return r};class x{constructor(t,e){this.x=t||0,this.y=e||0}toString(){return`(x=${this.x}, y=${this.y})`}clone(){return new x(this.x,this.y)}add(t){return new x(this.x+t.x,this.y+t.y)}scale(t){return void 0===t.x?new x(this.x*t,this.y*t):new x(this.x*t.x,this.y*t.y)}distSquared(t){let e=this.x-t.x,s=this.y-t.y;return e*e+s*s}transform(t){let e=this.x*t.a+this.y*t.c+t.e,s=this.x*t.b+this.y*t.d+t.f;return new x(e,s)}}class g{constructor(t,e,s,r,n,o){void 0===t?(this.a=1,this.b=0,this.c=0,this.d=1,this.e=0,this.f=0):(this.a=t,this.b=e,this.c=s,this.d=r,this.e=n,this.f=o)}toString(){return`affine: ${this.a} ${this.c} ${this.e} \n       ${this.b} ${this.d} ${this.f}`}append(t){t instanceof g||console.error(&quot;mesh.js: argument to Affine.append is not affine!&quot;);let e=this.a*t.a+this.c*t.b,s=this.b*t.a+this.d*t.b,r=this.a*t.c+this.c*t.d,n=this.b*t.c+this.d*t.d,o=this.a*t.e+this.c*t.f+this.e,i=this.b*t.e+this.d*t.f+this.f;return new g(e,s,r,n,o,i)}}class w{constructor(t,e){this.nodes=t,this.colors=e}paintCurve(t,e){if(o(this.nodes)&gt;r){const s=n(...this.nodes);let r=[[],[]],o=[[],[]];for(let t=0;t&lt;4;++t)r[0][t]=this.colors[0][t],r[1][t]=(this.colors[0][t]+this.colors[1][t])/2,o[0][t]=r[1][t],o[1][t]=this.colors[1][t];let i=new w(s[0],r),a=new w(s[1],o);i.paintCurve(t,e),a.paintCurve(t,e)}else{let s=Math.round(this.nodes[0].x);if(s&gt;=0&amp;&amp;s&lt;e){let r=4*(~~this.nodes[0].y*e+s);t[r]=Math.round(this.colors[0][0]),t[r+1]=Math.round(this.colors[0][1]),t[r+2]=Math.round(this.colors[0][2]),t[r+3]=Math.round(this.colors[0][3])}}}}class m{constructor(t,e){this.nodes=t,this.colors=e}split(){let t=[[],[],[],[]],e=[[],[],[],[]],s=[[[],[]],[[],[]]],r=[[[],[]],[[],[]]];for(let s=0;s&lt;4;++s){const r=n(this.nodes[0][s],this.nodes[1][s],this.nodes[2][s],this.nodes[3][s]);t[0][s]=r[0][0],t[1][s]=r[0][1],t[2][s]=r[0][2],t[3][s]=r[0][3],e[0][s]=r[1][0],e[1][s]=r[1][1],e[2][s]=r[1][2],e[3][s]=r[1][3]}for(let t=0;t&lt;4;++t)s[0][0][t]=this.colors[0][0][t],s[0][1][t]=this.colors[0][1][t],s[1][0][t]=(this.colors[0][0][t]+this.colors[1][0][t])/2,s[1][1][t]=(this.colors[0][1][t]+this.colors[1][1][t])/2,r[0][0][t]=s[1][0][t],r[0][1][t]=s[1][1][t],r[1][0][t]=this.colors[1][0][t],r[1][1][t]=this.colors[1][1][t];return[new m(t,s),new m(e,r)]}paint(t,e){let s,n=!1;for(let t=0;t&lt;4;++t)if((s=o([this.nodes[0][t],this.nodes[1][t],this.nodes[2][t],this.nodes[3][t]]))&gt;r){n=!0;break}if(n){let s=this.split();s[0].paint(t,e),s[1].paint(t,e)}else{new w([...this.nodes[0]],[...this.colors[0]]).paintCurve(t,e)}}}class b{constructor(t){this.readMesh(t),this.type=t.getAttribute(&quot;type&quot;)||&quot;bilinear&quot;}readMesh(t){let e=[[]],s=[[]],r=Number(t.getAttribute(&quot;x&quot;)),n=Number(t.getAttribute(&quot;y&quot;));e[0][0]=new x(r,n);let o=t.children;for(let t=0,r=o.length;t&lt;r;++t){e[3*t+1]=[],e[3*t+2]=[],e[3*t+3]=[],s[t+1]=[];let r=o[t].children;for(let n=0,o=r.length;n&lt;o;++n){let o=r[n].children;for(let r=0,i=o.length;r&lt;i;++r){let i=r;0!==t&amp;&amp;++i;let h,d=o[r].getAttribute(&quot;path&quot;),c=&quot;l&quot;;null!=d&amp;&amp;(c=(h=d.match(/\s*([lLcC])\s*(.*)/))[1]);let u=l(h[2]);switch(c){case&quot;l&quot;:0===i?(e[3*t][3*n+3]=u[0].add(e[3*t][3*n]),e[3*t][3*n+1]=a(e[3*t][3*n],e[3*t][3*n+3]),e[3*t][3*n+2]=a(e[3*t][3*n+3],e[3*t][3*n])):1===i?(e[3*t+3][3*n+3]=u[0].add(e[3*t][3*n+3]),e[3*t+1][3*n+3]=a(e[3*t][3*n+3],e[3*t+3][3*n+3]),e[3*t+2][3*n+3]=a(e[3*t+3][3*n+3],e[3*t][3*n+3])):2===i?(0===n&amp;&amp;(e[3*t+3][3*n+0]=u[0].add(e[3*t+3][3*n+3])),e[3*t+3][3*n+1]=a(e[3*t+3][3*n],e[3*t+3][3*n+3]),e[3*t+3][3*n+2]=a(e[3*t+3][3*n+3],e[3*t+3][3*n])):(e[3*t+1][3*n]=a(e[3*t][3*n],e[3*t+3][3*n]),e[3*t+2][3*n]=a(e[3*t+3][3*n],e[3*t][3*n]));break;case&quot;L&quot;:0===i?(e[3*t][3*n+3]=u[0],e[3*t][3*n+1]=a(e[3*t][3*n],e[3*t][3*n+3]),e[3*t][3*n+2]=a(e[3*t][3*n+3],e[3*t][3*n])):1===i?(e[3*t+3][3*n+3]=u[0],e[3*t+1][3*n+3]=a(e[3*t][3*n+3],e[3*t+3][3*n+3]),e[3*t+2][3*n+3]=a(e[3*t+3][3*n+3],e[3*t][3*n+3])):2===i?(0===n&amp;&amp;(e[3*t+3][3*n+0]=u[0]),e[3*t+3][3*n+1]=a(e[3*t+3][3*n],e[3*t+3][3*n+3]),e[3*t+3][3*n+2]=a(e[3*t+3][3*n+3],e[3*t+3][3*n])):(e[3*t+1][3*n]=a(e[3*t][3*n],e[3*t+3][3*n]),e[3*t+2][3*n]=a(e[3*t+3][3*n],e[3*t][3*n]));break;case&quot;c&quot;:0===i?(e[3*t][3*n+1]=u[0].add(e[3*t][3*n]),e[3*t][3*n+2]=u[1].add(e[3*t][3*n]),e[3*t][3*n+3]=u[2].add(e[3*t][3*n])):1===i?(e[3*t+1][3*n+3]=u[0].add(e[3*t][3*n+3]),e[3*t+2][3*n+3]=u[1].add(e[3*t][3*n+3]),e[3*t+3][3*n+3]=u[2].add(e[3*t][3*n+3])):2===i?(e[3*t+3][3*n+2]=u[0].add(e[3*t+3][3*n+3]),e[3*t+3][3*n+1]=u[1].add(e[3*t+3][3*n+3]),0===n&amp;&amp;(e[3*t+3][3*n+0]=u[2].add(e[3*t+3][3*n+3]))):(e[3*t+2][3*n]=u[0].add(e[3*t+3][3*n]),e[3*t+1][3*n]=u[1].add(e[3*t+3][3*n]));break;case&quot;C&quot;:0===i?(e[3*t][3*n+1]=u[0],e[3*t][3*n+2]=u[1],e[3*t][3*n+3]=u[2]):1===i?(e[3*t+1][3*n+3]=u[0],e[3*t+2][3*n+3]=u[1],e[3*t+3][3*n+3]=u[2]):2===i?(e[3*t+3][3*n+2]=u[0],e[3*t+3][3*n+1]=u[1],0===n&amp;&amp;(e[3*t+3][3*n+0]=u[2])):(e[3*t+2][3*n]=u[0],e[3*t+1][3*n]=u[1]);break;default:console.error(&quot;mesh.js: &quot;+c+&quot; invalid path type.&quot;)}if(0===t&amp;&amp;0===n||r&gt;0){let e=window.getComputedStyle(o[r]).stopColor.match(/^rgb\s*\(\s*(\d+)\s*,\s*(\d+)\s*,\s*(\d+)\s*\)$/i),a=window.getComputedStyle(o[r]).stopOpacity,h=255;a&amp;&amp;(h=Math.floor(255*a)),e&amp;&amp;(0===i?(s[t][n]=[],s[t][n][0]=Math.floor(e[1]),s[t][n][1]=Math.floor(e[2]),s[t][n][2]=Math.floor(e[3]),s[t][n][3]=h):1===i?(s[t][n+1]=[],s[t][n+1][0]=Math.floor(e[1]),s[t][n+1][1]=Math.floor(e[2]),s[t][n+1][2]=Math.floor(e[3]),s[t][n+1][3]=h):2===i?(s[t+1][n+1]=[],s[t+1][n+1][0]=Math.floor(e[1]),s[t+1][n+1][1]=Math.floor(e[2]),s[t+1][n+1][2]=Math.floor(e[3]),s[t+1][n+1][3]=h):3===i&amp;&amp;(s[t+1][n]=[],s[t+1][n][0]=Math.floor(e[1]),s[t+1][n][1]=Math.floor(e[2]),s[t+1][n][2]=Math.floor(e[3]),s[t+1][n][3]=h))}}e[3*t+1][3*n+1]=new x,e[3*t+1][3*n+2]=new x,e[3*t+2][3*n+1]=new x,e[3*t+2][3*n+2]=new x,e[3*t+1][3*n+1].x=(-4*e[3*t][3*n].x+6*(e[3*t][3*n+1].x+e[3*t+1][3*n].x)+-2*(e[3*t][3*n+3].x+e[3*t+3][3*n].x)+3*(e[3*t+3][3*n+1].x+e[3*t+1][3*n+3].x)+-1*e[3*t+3][3*n+3].x)/9,e[3*t+1][3*n+2].x=(-4*e[3*t][3*n+3].x+6*(e[3*t][3*n+2].x+e[3*t+1][3*n+3].x)+-2*(e[3*t][3*n].x+e[3*t+3][3*n+3].x)+3*(e[3*t+3][3*n+2].x+e[3*t+1][3*n].x)+-1*e[3*t+3][3*n].x)/9,e[3*t+2][3*n+1].x=(-4*e[3*t+3][3*n].x+6*(e[3*t+3][3*n+1].x+e[3*t+2][3*n].x)+-2*(e[3*t+3][3*n+3].x+e[3*t][3*n].x)+3*(e[3*t][3*n+1].x+e[3*t+2][3*n+3].x)+-1*e[3*t][3*n+3].x)/9,e[3*t+2][3*n+2].x=(-4*e[3*t+3][3*n+3].x+6*(e[3*t+3][3*n+2].x+e[3*t+2][3*n+3].x)+-2*(e[3*t+3][3*n].x+e[3*t][3*n+3].x)+3*(e[3*t][3*n+2].x+e[3*t+2][3*n].x)+-1*e[3*t][3*n].x)/9,e[3*t+1][3*n+1].y=(-4*e[3*t][3*n].y+6*(e[3*t][3*n+1].y+e[3*t+1][3*n].y)+-2*(e[3*t][3*n+3].y+e[3*t+3][3*n].y)+3*(e[3*t+3][3*n+1].y+e[3*t+1][3*n+3].y)+-1*e[3*t+3][3*n+3].y)/9,e[3*t+1][3*n+2].y=(-4*e[3*t][3*n+3].y+6*(e[3*t][3*n+2].y+e[3*t+1][3*n+3].y)+-2*(e[3*t][3*n].y+e[3*t+3][3*n+3].y)+3*(e[3*t+3][3*n+2].y+e[3*t+1][3*n].y)+-1*e[3*t+3][3*n].y)/9,e[3*t+2][3*n+1].y=(-4*e[3*t+3][3*n].y+6*(e[3*t+3][3*n+1].y+e[3*t+2][3*n].y)+-2*(e[3*t+3][3*n+3].y+e[3*t][3*n].y)+3*(e[3*t][3*n+1].y+e[3*t+2][3*n+3].y)+-1*e[3*t][3*n+3].y)/9,e[3*t+2][3*n+2].y=(-4*e[3*t+3][3*n+3].y+6*(e[3*t+3][3*n+2].y+e[3*t+2][3*n+3].y)+-2*(e[3*t+3][3*n].y+e[3*t][3*n+3].y)+3*(e[3*t][3*n+2].y+e[3*t+2][3*n].y)+-1*e[3*t][3*n].y)/9}}this.nodes=e,this.colors=s}paintMesh(t,e){let s=(this.nodes.length-1)/3,r=(this.nodes[0].length-1)/3;if(&quot;bilinear&quot;===this.type||s&lt;2||r&lt;2){let n;for(let o=0;o&lt;s;++o)for(let s=0;s&lt;r;++s){let r=[];for(let t=3*o,e=3*o+4;t&lt;e;++t)r.push(this.nodes[t].slice(3*s,3*s+4));let i=[];i.push(this.colors[o].slice(s,s+2)),i.push(this.colors[o+1].slice(s,s+2)),(n=new m(r,i)).paint(t,e)}}else{let n,o,a,h,l,d,u;const x=s,g=r;s++,r++;let w=new Array(s);for(let t=0;t&lt;s;++t){w[t]=new Array(r);for(let e=0;e&lt;r;++e)w[t][e]=[],w[t][e][0]=this.nodes[3*t][3*e],w[t][e][1]=this.colors[t][e]}for(let t=0;t&lt;s;++t)for(let e=0;e&lt;r;++e)0!==t&amp;&amp;t!==x&amp;&amp;(n=i(w[t-1][e][0],w[t][e][0]),o=i(w[t+1][e][0],w[t][e][0]),w[t][e][2]=c(w[t-1][e][1],w[t][e][1],w[t+1][e][1],n,o)),0!==e&amp;&amp;e!==g&amp;&amp;(n=i(w[t][e-1][0],w[t][e][0]),o=i(w[t][e+1][0],w[t][e][0]),w[t][e][3]=c(w[t][e-1][1],w[t][e][1],w[t][e+1][1],n,o));for(let t=0;t&lt;r;++t){w[0][t][2]=[],w[x][t][2]=[];for(let e=0;e&lt;4;++e)n=i(w[1][t][0],w[0][t][0]),o=i(w[x][t][0],w[x-1][t][0]),w[0][t][2][e]=n&gt;0?2*(w[1][t][1][e]-w[0][t][1][e])/n-w[1][t][2][e]:0,w[x][t][2][e]=o&gt;0?2*(w[x][t][1][e]-w[x-1][t][1][e])/o-w[x-1][t][2][e]:0}for(let t=0;t&lt;s;++t){w[t][0][3]=[],w[t][g][3]=[];for(let e=0;e&lt;4;++e)n=i(w[t][1][0],w[t][0][0]),o=i(w[t][g][0],w[t][g-1][0]),w[t][0][3][e]=n&gt;0?2*(w[t][1][1][e]-w[t][0][1][e])/n-w[t][1][3][e]:0,w[t][g][3][e]=o&gt;0?2*(w[t][g][1][e]-w[t][g-1][1][e])/o-w[t][g-1][3][e]:0}for(let s=0;s&lt;x;++s)for(let r=0;r&lt;g;++r){let n=i(w[s][r][0],w[s+1][r][0]),o=i(w[s][r+1][0],w[s+1][r+1][0]),c=i(w[s][r][0],w[s][r+1][0]),x=i(w[s+1][r][0],w[s+1][r+1][0]),g=[[],[],[],[]];for(let t=0;t&lt;4;++t){(d=[])[0]=w[s][r][1][t],d[1]=w[s+1][r][1][t],d[2]=w[s][r+1][1][t],d[3]=w[s+1][r+1][1][t],d[4]=w[s][r][2][t]*n,d[5]=w[s+1][r][2][t]*n,d[6]=w[s][r+1][2][t]*o,d[7]=w[s+1][r+1][2][t]*o,d[8]=w[s][r][3][t]*c,d[9]=w[s+1][r][3][t]*x,d[10]=w[s][r+1][3][t]*c,d[11]=w[s+1][r+1][3][t]*x,d[12]=0,d[13]=0,d[14]=0,d[15]=0,u=f(d);for(let e=0;e&lt;9;++e){g[t][e]=[];for(let s=0;s&lt;9;++s)g[t][e][s]=p(u,e/8,s/8),g[t][e][s]&gt;255?g[t][e][s]=255:g[t][e][s]&lt;0&amp;&amp;(g[t][e][s]=0)}}h=[];for(let t=3*s,e=3*s+4;t&lt;e;++t)h.push(this.nodes[t].slice(3*r,3*r+4));l=y(h);for(let s=0;s&lt;8;++s)for(let r=0;r&lt;8;++r)(a=new m(l[s][r],[[[g[0][s][r],g[1][s][r],g[2][s][r],g[3][s][r]],[g[0][s][r+1],g[1][s][r+1],g[2][s][r+1],g[3][s][r+1]]],[[g[0][s+1][r],g[1][s+1][r],g[2][s+1][r],g[3][s+1][r]],[g[0][s+1][r+1],g[1][s+1][r+1],g[2][s+1][r+1],g[3][s+1][r+1]]]])).paint(t,e)}}}transform(t){if(t instanceof x)for(let e=0,s=this.nodes.length;e&lt;s;++e)for(let s=0,r=this.nodes[0].length;s&lt;r;++s)this.nodes[e][s]=this.nodes[e][s].add(t);else if(t instanceof g)for(let e=0,s=this.nodes.length;e&lt;s;++e)for(let s=0,r=this.nodes[0].length;s&lt;r;++s)this.nodes[e][s]=this.nodes[e][s].transform(t)}scale(t){for(let e=0,s=this.nodes.length;e&lt;s;++e)for(let s=0,r=this.nodes[0].length;s&lt;r;++s)this.nodes[e][s]=this.nodes[e][s].scale(t)}}document.querySelectorAll(&quot;rect,circle,ellipse,path,text&quot;).forEach((r,n)=&gt;{let o=r.getAttribute(&quot;id&quot;);o||(o=&quot;patchjs_shape&quot;+n,r.setAttribute(&quot;id&quot;,o));const i=r.style.fill.match(/^url\(\s*&quot;?\s*#([^\s&quot;]+)&quot;?\s*\)/),a=r.style.stroke.match(/^url\(\s*&quot;?\s*#([^\s&quot;]+)&quot;?\s*\)/);if(i&amp;&amp;i[1]){const a=document.getElementById(i[1]);if(a&amp;&amp;&quot;meshgradient&quot;===a.nodeName){const i=r.getBBox();let l=document.createElementNS(s,&quot;canvas&quot;);d(l,{width:i.width,height:i.height});const c=l.getContext(&quot;2d&quot;);let u=c.createImageData(i.width,i.height);const f=new b(a);&quot;objectBoundingBox&quot;===a.getAttribute(&quot;gradientUnits&quot;)&amp;&amp;f.scale(new x(i.width,i.height));const p=a.getAttribute(&quot;gradientTransform&quot;);null!=p&amp;&amp;f.transform(h(p)),&quot;userSpaceOnUse&quot;===a.getAttribute(&quot;gradientUnits&quot;)&amp;&amp;f.transform(new x(-i.x,-i.y)),f.paintMesh(u.data,l.width),c.putImageData(u,0,0);const y=document.createElementNS(t,&quot;image&quot;);d(y,{width:i.width,height:i.height,x:i.x,y:i.y});let g=l.toDataURL();y.setAttributeNS(e,&quot;xlink:href&quot;,g),r.parentNode.insertBefore(y,r),r.style.fill=&quot;none&quot;;const w=document.createElementNS(t,&quot;use&quot;);w.setAttributeNS(e,&quot;xlink:href&quot;,&quot;#&quot;+o);const m=&quot;patchjs_clip&quot;+n,M=document.createElementNS(t,&quot;clipPath&quot;);M.setAttribute(&quot;id&quot;,m),M.appendChild(w),r.parentElement.insertBefore(M,r),y.setAttribute(&quot;clip-path&quot;,&quot;url(#&quot;+m+&quot;)&quot;),u=null,l=null,g=null}}if(a&amp;&amp;a[1]){const o=document.getElementById(a[1]);if(o&amp;&amp;&quot;meshgradient&quot;===o.nodeName){const i=parseFloat(r.style.strokeWidth.slice(0,-2))*(parseFloat(r.style.strokeMiterlimit)||parseFloat(r.getAttribute(&quot;stroke-miterlimit&quot;))||1),a=r.getBBox(),l=Math.trunc(a.width+i),c=Math.trunc(a.height+i),u=Math.trunc(a.x-i/2),f=Math.trunc(a.y-i/2);let p=document.createElementNS(s,&quot;canvas&quot;);d(p,{width:l,height:c});const y=p.getContext(&quot;2d&quot;);let g=y.createImageData(l,c);const w=new b(o);&quot;objectBoundingBox&quot;===o.getAttribute(&quot;gradientUnits&quot;)&amp;&amp;w.scale(new x(l,c));const m=o.getAttribute(&quot;gradientTransform&quot;);null!=m&amp;&amp;w.transform(h(m)),&quot;userSpaceOnUse&quot;===o.getAttribute(&quot;gradientUnits&quot;)&amp;&amp;w.transform(new x(-u,-f)),w.paintMesh(g.data,p.width),y.putImageData(g,0,0);const M=document.createElementNS(t,&quot;image&quot;);d(M,{width:l,height:c,x:0,y:0});let S=p.toDataURL();M.setAttributeNS(e,&quot;xlink:href&quot;,S);const k=&quot;pattern_clip&quot;+n,A=document.createElementNS(t,&quot;pattern&quot;);d(A,{id:k,patternUnits:&quot;userSpaceOnUse&quot;,width:l,height:c,x:u,y:f}),A.appendChild(M),o.parentNode.appendChild(A),r.style.stroke=&quot;url(#&quot;+k+&quot;)&quot;,g=null,p=null,S=null}}})}();
</script>
</svg>
